<svg width="117" height="77" viewBox="0 0 117 77" fill="none" xmlns="http://www.w3.org/2000/svg">
<g clip-path="url(#clip0_1151_369)">
<path d="M3.87891 24.8778V17.4946C3.87891 13.1234 7.13726 9.57361 11.1617 9.57361H105.848C109.872 9.57361 113.131 13.1234 113.131 17.4946V65.1673C113.131 69.5386 109.872 73.0883 105.848 73.0883H11.1617C7.13726 73.0883 3.87891 69.5386 3.87891 65.1673V20.4479" stroke="white" stroke-width="8" stroke-miterlimit="10" stroke-linecap="round"/>
<path d="M96.3736 3.91162H83.0396" stroke="white" stroke-width="8" stroke-miterlimit="10" stroke-linecap="round"/>
<path d="M58.495 60.4637C68.9763 60.4637 77.473 51.8955 77.473 41.3261C77.473 30.7568 68.9763 22.1886 58.495 22.1886C48.0138 22.1886 39.5171 30.7568 39.5171 41.3261C39.5171 51.8955 48.0138 60.4637 58.495 60.4637Z" stroke="white" stroke-width="8" stroke-miterlimit="10" stroke-linecap="round"/>
</g>
<defs>
<clipPath id="clip0_1151_369">
<rect width="117" height="77" fill="white"/>
</clipPath>
</defs>
</svg>
