<svg width="93" height="93" viewBox="0 0 93 93" fill="none" xmlns="http://www.w3.org/2000/svg">
<circle cx="46.5" cy="46.5" r="46.5" fill="#F97216"/>
<g clip-path="url(#clip0_1241_653)">
<path d="M35.397 38.3818C35.397 38.3818 17.397 44.3596 17.397 58.7781V71.3818" stroke="white" stroke-width="6" stroke-linecap="round" stroke-linejoin="round"/>
<path d="M38.7274 40.3818C33.4023 39.2997 29.397 34.614 29.397 28.9992C29.397 22.5831 34.6296 17.3818 41.0844 17.3818C46.5224 17.3818 51.0875 21.0722 52.397 26.0694" stroke="white" stroke-width="6" stroke-linecap="round" stroke-linejoin="round"/>
<path d="M50.397 53.3818C50.397 53.3818 32.397 59.2386 32.397 73.3818" stroke="white" stroke-width="6" stroke-linecap="round" stroke-linejoin="round"/>
<path d="M61.397 53.3818C61.397 53.3818 79.397 59.2386 79.397 73.3818" stroke="white" stroke-width="6" stroke-linecap="round" stroke-linejoin="round"/>
<path d="M55.897 54.3818C62.2482 54.3818 67.397 49.457 67.397 43.3818C67.397 37.3067 62.2482 32.3818 55.897 32.3818C49.5457 32.3818 44.397 37.3067 44.397 43.3818C44.397 49.457 49.5457 54.3818 55.897 54.3818Z" stroke="white" stroke-width="6" stroke-linecap="round" stroke-linejoin="round"/>
</g>
<defs>
<clipPath id="clip0_1241_653">
<rect width="70" height="64" fill="white" transform="translate(11 13)"/>
</clipPath>
</defs>
</svg>
