<svg width="99" height="102" viewBox="0 0 99 102" fill="none" xmlns="http://www.w3.org/2000/svg">
<g clip-path="url(#clip0_1151_378)">
<path d="M39.8114 28.8948L23.4428 40.4153C22.4262 41.1327 21.6483 42.1205 21.1919 43.2746L4.59504 85.2079C3.69259 87.4746 4.18012 90.0636 5.82943 91.8624L9.43923 95.7926C11.213 97.7266 13.9826 98.3608 16.4203 97.4043L60.3811 80.1027C61.9682 79.4789 63.2337 78.2416 63.8975 76.6715L71.7188 58.2575C72.7457 55.8348 72.1752 53.0171 70.2873 51.1975L47.8609 29.529C45.6722 27.4183 42.3009 27.1584 39.8114 28.9052V28.8948Z" stroke="white" stroke-width="8" stroke-linecap="round" stroke-linejoin="round"/>
<path d="M8.25684 92.9957L30.4032 72.3773" stroke="white" stroke-width="8" stroke-linecap="round" stroke-linejoin="round"/>
<path d="M57.228 17.8942L80.671 41.975L94.8509 29.1132L70.5573 4.15906L57.228 17.8942Z" stroke="white" stroke-width="8" stroke-linecap="round" stroke-linejoin="round"/>
</g>
<defs>
<clipPath id="clip0_1151_378">
<rect width="99" height="102" fill="white"/>
</clipPath>
</defs>
</svg>
