<svg width="430" height="509" viewBox="0 0 430 509" fill="none" xmlns="http://www.w3.org/2000/svg">
<g filter="url(#filter0_i_913_531)">
<path d="M41.405 231.284C33.8039 221.968 19.6857 201.755 21.3182 189.465C22.4274 181.12 29.1966 182.053 35.3355 179.563C42.8925 176.5 47.9788 171.206 52.5105 164.626C53.771 162.798 58.6682 154.983 58.9393 153.363C59.1472 152.108 53.8088 135.835 53.0525 132.438C45.2182 97.2872 49.1763 48.8254 66.4899 16.7822C74.5133 1.92663 81.522 -4.5841 98.2684 4.11369C118.078 14.3998 137.938 35.432 151.237 53.1554C153.001 55.5063 161.548 68.9942 162.752 69.366C165.752 70.2862 173.712 67.179 177.425 68.2126C176.385 62.5654 175.824 49.1909 183.444 48.1069C195.753 46.361 207.779 59.0358 212.67 69.1706C216.779 69.7379 220.895 70.3745 224.909 71.4081C227.55 72.0888 233.979 75.0448 235.719 75.1519C236.443 75.1961 237.049 75.07 237.578 74.5469C259.915 53.3886 286.802 31.247 316.243 20.9798C330.632 15.9629 341.088 13.0006 348.342 29.1986C364.131 64.4373 351.437 125.958 333.266 158.903C331.88 161.418 322.974 174.571 322.942 175.548C322.886 177.181 325.552 185.242 326.34 187.215C331.791 200.81 337.287 201.383 348.027 208.348C357.879 214.739 348.784 228.189 343.628 234.75C337.798 242.168 330.411 248.269 323.497 254.604C311.799 261.902 301.053 271.337 287.83 276.55L276.277 281.668C286.601 279.997 296.54 276.172 305.862 271.602C306.7 280.886 319.268 304.603 329.793 303.715C329.34 304.742 328.394 305.026 327.506 305.511C312.114 313.925 296.622 320.776 279.428 324.816L260.173 328.258C262.096 339.086 264.075 349.945 265.367 360.893C265.657 363.332 267.667 377.173 267.453 378.018C266.136 383.142 265.19 388.814 263.993 394.392C263.041 398.836 260.52 404.59 259.934 408.592C259.505 411.504 260.154 414.977 259.883 417.99C259.014 427.709 252.541 440.736 244.152 446.018C228.691 455.75 205.686 443.68 198.816 428.389C195.608 421.248 194.392 411.952 195.047 404.155C195.35 400.531 197.133 396.844 196.61 393.119C190.61 404.168 192.406 416.824 195.665 428.389C186.614 429.442 177.109 431.175 167.958 429.65C164.397 429.057 156.852 426.53 153.14 425.263C146.516 423.013 140.358 419.786 133.961 417.057C133.866 418.425 136.16 419.666 137.169 420.454C145.476 426.952 155.422 430.973 165.437 434.055C165.563 435.247 166.357 439.299 166.697 440.352C164.68 446.012 158.731 450.411 153.808 453.594C142.728 460.754 130.16 464.321 116.956 461.762C89.5139 434.969 79.8518 393.415 84.2952 355.744C85.978 341.449 89.8668 329.304 93.6611 315.677C95.9805 307.351 98.9554 299.139 99.9512 290.492L89.8857 315.047C68.261 310.005 45.0417 295.861 28.1819 281.674C42.8042 278.39 51.1869 263.579 56.8467 250.816L65.3302 255.228L62.1915 251.755C54.3887 245.931 47.5313 238.809 41.405 231.302V231.284ZM123.87 83.9065C118.525 70.2484 112.368 56.0735 103.09 44.6088C95.4952 35.224 87.831 26.1229 80.9547 41.9617C75.1877 55.2542 71.9796 78.6689 72.8872 93.0706C73.2969 99.594 75.9945 114.166 80.1417 119.196C80.9358 120.16 80.6648 119.731 81.3959 119.227C83.0851 118.048 86.5516 112.88 88.3037 111.021C92.1673 106.924 96.4658 102.733 101.174 99.6318C100.241 95.3901 95.3754 90.8017 97.5877 86.3078C99.8 81.8139 105.895 81.6879 110.187 82.2236C114.845 82.8035 119.477 86.415 123.87 83.9128V83.9065ZM322.715 51.3276C313.224 52.6763 294.624 71.1749 288.246 78.6058C286.286 80.8874 274.594 95.3901 274.455 96.9468C274.203 99.72 281.779 97.2683 283.519 97.1737C288.788 96.8838 298.053 96.6002 299.427 103.294C300.839 110.17 292.418 114.771 292.683 116.284C298.576 122.845 303.064 130.452 307.431 138.066C310.91 135.98 313.381 132.538 315.568 129.217C324.984 114.929 330.109 94.9615 331.041 77.9504C331.375 71.906 332.579 49.9157 322.715 51.3213V51.3276ZM124.998 114.33C120.296 114.979 108.145 120.21 111.889 126.488C114.794 131.36 121.273 126.166 125.137 125.171C129.593 124.023 139.791 125.593 139.444 118.988C139.148 113.359 128.925 113.794 124.998 114.33ZM244.019 123.759C241.29 124.049 237.131 125.826 238.107 129.293C239.217 133.207 246.257 133.074 249.843 134.612C253.492 136.175 257.198 140.953 259.228 141.589C265.776 143.656 267.106 137.429 263.671 132.746C259.795 127.465 250.518 123.072 244.019 123.759ZM119.975 157.794C108.794 159.13 93.8754 172.536 94.8964 184.379C95.2557 188.526 99.6046 190.568 103.122 188.797C103.979 188.362 106.764 179.992 108.025 177.956C115.872 165.262 134.1 166.019 138.19 180.786C139.419 185.223 137.856 192.522 143.762 193.473C153.714 195.074 149.239 180.212 147.102 175.025C142.413 163.655 132.65 156.281 119.975 157.794ZM235.189 168.483C228.672 169.365 221.09 174.231 217.094 179.355C214.27 182.979 206.197 197.822 214.863 198.598C221.55 199.196 221.601 191.343 224.739 187C233.885 174.37 251.06 175.838 255.673 191.11C257.318 196.568 254.696 203.86 262.102 203.633C271.291 203.35 266.016 187.561 263.596 182.563C258.194 171.445 247.246 166.851 235.189 168.483ZM225.351 290.561C250.133 285.399 279.68 276.777 297.927 258.297C325.079 230.798 300.171 211.09 269.634 212.999C262.253 213.459 258.106 216.226 251.583 218.243C211.459 230.634 208.27 191.501 174.607 189.074C154.546 187.624 146.421 200.986 131.257 208.732C115.803 216.623 104.414 203.848 90.8501 199.165C79.8455 195.364 65.387 194.274 55.5799 201.692C36.6527 216.018 58.9834 243.051 71.3368 253.936C85.5684 266.478 102.926 275.422 120.75 281.668C115.141 291.84 112.097 303.576 113.269 315.268C115.242 334.939 139.514 368.482 158.1 375.585C164.863 378.169 163.767 374.639 167.649 370.429C183.437 353.317 209.096 340.561 219.93 320.707C225.168 311.114 226.441 301.332 225.357 290.561H225.351ZM67.2211 256.469L65.9668 255.215C65.784 256.532 65.9038 256.646 67.2211 256.469Z" fill="#FE740E"/>
<path d="M269.345 379.259C274.734 381.415 284.894 380.69 290.522 379.341C318.128 372.73 327.078 345.918 341.032 324.678C341.562 323.871 341.776 321.602 343.018 322.598C343.2 322.749 342.293 325.573 342.394 327.3C343.03 337.97 349.938 342.628 360.338 341.487C366.64 340.794 371.619 336.331 376.384 332.67C374.027 350.714 390.578 367.152 406.619 352.511C408.61 350.695 409.505 348.452 410.967 346.926C411.402 346.473 411.976 346.239 412.272 346.523C412.531 346.769 413.709 351.502 414.692 353.242C418.058 359.217 422.212 361.914 429.283 361.007C423.586 417.152 374.594 452.951 318.973 441.405C306.676 438.852 295.489 433.507 284.459 427.747C281.15 419.761 274.463 406.531 265.576 404.439C267.731 396.189 268.746 387.775 269.351 379.266L269.345 379.259Z" fill="#FE740E"/>
<path d="M329.788 303.696C319.256 304.585 306.694 280.868 305.856 271.584C296.534 276.153 286.595 279.985 276.271 281.649L287.824 276.531C301.041 271.313 311.793 261.884 323.491 254.585C335.032 247.381 353.335 236.875 363.791 251.125C370.989 260.938 366.154 273.935 359.077 282.298C355.15 286.937 335.145 303.249 329.788 303.696Z" fill="#A45307"/>
<path d="M41.4057 231.284C47.532 238.79 54.3894 245.912 62.1922 251.736L65.331 255.209L56.8475 250.797C51.1939 263.554 42.8113 278.372 28.1826 281.655C14.8838 270.462 -7.44053 248.711 3.75314 229.834C8.66298 221.559 16.825 219.466 25.6552 222.788C31.2457 224.893 35.727 229.607 41.4057 231.284Z" fill="#A45307"/>
<path d="M116.964 461.744C130.169 464.309 142.736 460.735 153.817 453.576C158.739 450.399 164.689 446 166.706 440.333C168.37 445.514 172.933 451.023 174.906 456.374C179.733 469.484 173.494 502.145 158.859 507.729C145.699 512.752 138.589 502 135.211 491.026C133.843 486.589 132.98 476.278 131.372 473.454C130.477 471.872 123.752 468.393 121.698 466.761C119.883 465.318 118.578 463.32 116.964 461.738V461.744Z" fill="#A45307"/>
<path d="M269.343 379.259C268.738 387.768 267.724 396.188 265.568 404.432C274.461 406.525 281.142 419.754 284.451 427.74C289.764 440.566 295.594 461.428 282.579 471.519C265.94 484.408 249.994 458.749 244.151 445.999C252.54 440.717 259.013 427.689 259.883 417.971C260.154 414.958 259.505 411.485 259.933 408.573C260.52 404.571 263.041 398.817 263.992 394.373C265.19 388.789 266.135 383.123 267.453 377.999C268.549 377.696 269.161 379.183 269.343 379.259Z" fill="#A45307"/>
<path d="M167.965 429.631H165.444C165.551 431.062 165.292 432.625 165.444 434.037C155.429 430.961 145.483 426.934 137.176 420.436C136.167 419.648 133.873 418.4 133.968 417.039C140.365 419.768 146.523 422.995 153.147 425.245C156.859 426.505 164.41 429.033 167.965 429.631Z" fill="#A45307"/>
<path d="M198.818 428.37C197.784 428.452 196.694 428.251 195.666 428.37C192.408 416.805 190.611 404.155 196.612 393.1C197.135 396.825 195.351 400.512 195.049 404.136C194.393 411.933 195.61 421.229 198.818 428.37Z" fill="#A45307"/>
<path d="M93.6689 315.658C92.4273 315.444 91.11 315.312 89.8936 315.028L99.959 290.473C98.9632 299.114 95.9883 307.326 93.6689 315.658Z" fill="#A45307"/>
<path d="M225.352 290.561C226.436 301.332 225.163 311.114 219.926 320.707C209.091 340.561 183.433 353.317 167.644 370.429C163.762 374.633 164.859 378.169 158.096 375.585C139.509 368.482 115.231 334.939 113.264 315.268C112.092 303.582 115.136 291.84 120.746 281.668C102.928 275.422 85.5638 266.478 71.3322 253.936C58.9788 243.051 36.6481 216.018 55.5753 201.692C65.3824 194.268 79.8409 195.358 90.8455 199.165C104.409 203.848 115.798 216.63 131.252 208.732C146.417 200.986 154.547 187.631 174.603 189.074C208.266 191.501 211.455 230.634 251.578 218.243C258.101 216.226 262.249 213.459 269.629 212.999C300.172 211.09 325.074 230.798 297.922 258.297C279.676 276.777 250.128 285.399 225.346 290.561H225.352ZM174.332 220.014C187.782 218.886 198.843 204.371 180.697 198.724C174.231 196.707 162.407 196.102 156.678 200.161C148.049 206.274 158.688 213.775 163.995 217.31C166.869 219.226 168.161 217.726 167.184 222.636C165.911 229.027 154.831 227.508 150.955 224.054C148.982 222.302 146.089 216.138 143.032 218.634C139.692 221.363 144.167 226.582 146.6 228.41C147.753 229.279 152.688 231.422 152.871 231.725C153.703 233.067 153.331 236.591 153.652 238.355C155.808 250.11 160.314 267.335 175.781 265.23C186.37 263.787 194.198 246.744 197.576 237.92C198.251 236.162 198.377 233.282 199.158 231.945C200.034 230.439 208.619 225.201 203.476 221.911C198.893 218.987 198.465 223.947 196.335 225.97C189.704 232.248 173.405 231.914 174.332 220.021V220.014Z" fill="#FEF8E8"/>
<path d="M322.717 51.3281C332.581 49.9226 331.377 71.9129 331.043 77.9572C330.104 94.9683 324.986 114.935 315.57 129.224C313.383 132.545 310.912 135.987 307.433 138.073C303.065 130.453 298.577 122.852 292.684 116.291C292.413 114.772 300.834 110.171 299.428 103.301C298.054 96.607 288.796 96.8907 283.52 97.1806C281.781 97.2751 274.205 99.7269 274.457 96.9537C274.595 95.4032 286.293 80.9006 288.247 78.6127C294.626 71.1755 313.219 52.6832 322.717 51.3344V51.3281Z" fill="#FEF9E8"/>
<path d="M123.872 83.9062C119.479 86.4084 114.846 82.8032 110.188 82.2171C105.89 81.6813 99.7887 81.82 97.5891 86.3012C95.3894 90.7825 100.243 95.3835 101.175 99.6253C96.4609 102.726 92.1687 106.918 88.3051 111.014C86.5529 112.874 83.0864 118.042 81.3973 119.22C80.6725 119.731 80.9435 120.153 80.1431 119.189C75.9958 114.159 73.3046 99.5937 72.8886 93.0641C71.981 78.6623 75.1891 55.2413 80.9561 41.9551C87.8324 26.1163 95.4965 35.2175 103.091 44.6023C112.369 56.067 118.527 70.2418 123.872 83.8999V83.9062Z" fill="#FEF8E8"/>
<path d="M119.975 157.793C132.65 156.28 142.413 163.654 147.102 175.025C149.239 180.212 153.714 195.074 143.762 193.473C137.856 192.521 139.419 185.222 138.19 180.785C134.099 166.018 115.872 165.262 108.025 177.955C106.764 179.991 103.985 188.361 103.121 188.796C99.5983 190.567 95.2557 188.525 94.8964 184.378C93.8754 172.535 108.794 159.129 119.975 157.793Z" fill="#2C2C2F"/>
<path d="M235.189 168.483C247.246 166.85 258.2 171.445 263.596 182.563C266.022 187.555 271.291 203.35 262.102 203.633C254.696 203.86 257.324 196.568 255.673 191.11C251.059 175.838 233.884 174.37 224.739 187C221.6 191.337 221.55 199.19 214.863 198.597C206.196 197.822 214.264 182.979 217.094 179.355C221.09 174.231 228.672 169.365 235.189 168.483Z" fill="#2C2C2F"/>
<path d="M125 114.33C128.926 113.788 139.149 113.359 139.446 118.987C139.792 125.593 129.594 124.023 125.138 125.17C121.275 126.166 114.796 131.36 111.89 126.488C108.146 120.21 120.298 114.973 125 114.33Z" fill="#A45307"/>
<path d="M244.021 123.759C250.519 123.072 259.796 127.465 263.673 132.747C267.114 137.43 265.778 143.657 259.229 141.59C257.2 140.947 253.494 136.176 249.844 134.613C246.258 133.075 239.218 133.207 238.109 129.293C237.125 125.827 241.291 124.049 244.021 123.759Z" fill="#A45307"/>
<path d="M67.2218 256.47C65.9045 256.652 65.791 256.533 65.9675 255.215L67.2218 256.47Z" fill="#A45307"/>
<path d="M174.33 220.014C173.404 231.914 189.709 232.248 196.333 225.964C198.463 223.947 198.898 218.981 203.474 221.905C208.617 225.195 200.033 230.433 199.157 231.939C198.381 233.281 198.249 236.162 197.575 237.914C194.196 246.744 186.368 263.78 175.78 265.224C160.313 267.329 155.806 250.104 153.651 238.349C153.329 236.584 153.701 233.061 152.869 231.718C152.68 231.416 147.751 229.273 146.598 228.403C144.165 226.575 139.69 221.357 143.031 218.628C146.088 216.132 148.981 222.296 150.953 224.048C154.829 227.502 165.91 229.021 167.183 222.63C168.16 217.714 166.868 219.22 163.994 217.304C158.687 213.768 148.041 206.262 156.676 200.154C162.412 196.095 174.229 196.7 180.696 198.717C198.842 204.364 187.774 218.88 174.33 220.008V220.014ZM174.74 240.895C170.29 241.507 161.952 245.534 160.666 250.173C159.765 253.431 165.027 258.789 167.977 259.929C174.853 262.596 181.314 258.997 185.587 253.627C186.955 251.906 190.925 245.969 189.375 244.21C186.45 240.883 178.862 240.334 174.746 240.895H174.74Z" fill="#2C2C2F"/>
<path d="M174.741 240.895C178.863 240.328 186.445 240.876 189.37 244.21C190.92 245.969 186.949 251.906 185.582 253.626C181.308 258.996 174.848 262.595 167.972 259.929C165.022 258.788 159.759 253.425 160.661 250.172C161.946 245.534 170.285 241.506 174.735 240.895H174.741Z" fill="#FE740E"/>
<path d="M427.82 364.077C425.791 366.755 421.454 365.703 419.047 363.724C417.61 362.608 416.418 361.177 415.334 359.734C413.916 357.868 412.296 355.322 409.643 355.782C407.456 356.078 404.632 358.637 402.256 359.999C395.903 363.585 386.512 363.686 381.274 358.026C377.934 354.459 376.717 349.133 375.841 344.381C375.066 340.807 374.051 337.649 370.408 339.88C368.814 340.832 367.307 342.25 365.587 343.076C360.608 345.521 353.612 346.126 348.261 344.45C343.786 343.145 341.567 340.34 340.351 335.916C339.273 331.926 338.945 327.407 340.956 323.802C350.719 308.064 372.684 291.488 389.852 283.817C398.998 279.79 421.618 273.865 424.902 287.473C426.005 291.835 425.822 296.927 425.816 301.547C425.721 306.999 425.721 312.3 426.099 317.657C426.881 331.63 429.27 345.433 429.289 359.551C429.137 361.392 428.696 362.98 427.871 364.032L427.839 364.077H427.82Z" fill="#FEF5E1"/>
</g>
<defs>
<filter id="filter0_i_913_531" x="0.710938" y="-11.6954" width="428.578" height="520.695" filterUnits="userSpaceOnUse" color-interpolation-filters="sRGB">
<feFlood flood-opacity="0" result="BackgroundImageFix"/>
<feBlend mode="normal" in="SourceGraphic" in2="BackgroundImageFix" result="shape"/>
<feColorMatrix in="SourceAlpha" type="matrix" values="0 0 0 0 0 0 0 0 0 0 0 0 0 0 0 0 0 0 127 0" result="hardAlpha"/>
<feOffset dy="-17"/>
<feGaussianBlur stdDeviation="5.95"/>
<feComposite in2="hardAlpha" operator="arithmetic" k2="-1" k3="1"/>
<feColorMatrix type="matrix" values="0 0 0 0 1 0 0 0 0 1 0 0 0 0 1 0 0 0 0.42 0"/>
<feBlend mode="normal" in2="shape" result="effect1_innerShadow_913_531"/>
</filter>
</defs>
</svg>
