<svg width="37" height="36" viewBox="0 0 37 36" fill="none" xmlns="http://www.w3.org/2000/svg">
<path d="M45.7734 29.9709C44.6906 30.0263 44.1543 29.3527 43.7241 28.5112C43.2408 28.9774 42.7473 29.41 42.1152 29.6648C40.9223 30.1487 39.8395 29.7497 39.2909 28.6139C39.0095 28.0292 38.8546 27.411 38.8056 26.769C38.7832 26.4925 38.7343 26.3898 38.3998 26.53C37.7962 26.7828 37.1661 26.9962 36.4851 26.8006C35.7428 26.5893 35.1372 25.8189 35.129 25.0663C35.2779 24.691 35.5797 24.4204 35.8529 24.1419C37.3395 22.6249 39.0707 21.4298 41.063 20.62C41.846 20.3019 42.6596 20.055 43.5263 19.9977C44.1605 19.9563 44.5051 20.2585 44.7171 20.7642C45.2269 21.979 45.5206 23.2431 45.7204 24.5429C45.9202 25.8308 45.9998 27.1186 45.9733 28.4144C45.9631 28.9359 45.9202 29.4613 45.7734 29.9709Z" fill="#FFF8EC"/>
<path d="M28.8767 38.7471C29.4966 38.435 30.1492 38.2217 30.8445 38.1605C31.5052 38.1032 32.1272 38.2553 32.7104 38.5555C33.4995 39.0454 33.8441 39.7624 33.8462 40.6533C33.9094 40.6533 33.9726 40.6572 34.0358 40.6572C36.5888 40.2009 38.9441 39.2903 41.0036 37.7378C43.6504 35.7447 45.2573 33.1433 45.7834 29.9275C44.7006 29.9828 44.1643 29.3092 43.734 28.4678C43.2508 28.9339 42.7573 29.3665 42.1251 29.6213C40.9322 30.1053 39.8494 29.7063 39.3009 28.5705C39.0195 27.9858 38.8645 27.3675 38.8156 26.7256C38.7932 26.449 38.7442 26.3463 38.4098 26.4865C37.8062 26.7394 37.1761 26.9527 36.495 26.7572C35.7528 26.5458 35.1471 25.7754 35.139 25.0229C35.0207 25.0209 34.9963 25.1236 34.9453 25.1927C34.462 25.8347 34.0277 26.5083 33.6484 27.2154C32.9326 28.5507 32.3413 29.9334 32.0109 31.4109C31.7703 31.3694 31.5664 31.2114 31.3156 31.2075C31.285 31.1798 31.2544 31.164 31.2136 31.1917C31.1993 31.1739 31.183 31.1719 31.1647 31.1838C31.0464 30.7413 30.9444 30.2929 30.8058 29.8544C30.4856 28.8391 30.1349 27.8337 29.5843 26.9053C29.5741 26.8737 29.5782 26.8302 29.5333 26.8283V26.8105C29.3172 26.289 29.0399 25.7992 28.7299 25.3251C29.3274 25.0347 29.9024 24.7068 30.4612 24.3513H30.4652L30.4693 24.3453C30.6325 24.2407 30.7935 24.134 30.9526 24.0253C32.8368 22.7315 34.5109 21.2402 35.7201 19.3064C35.9608 18.9232 36.1321 18.5123 36.1932 18.0639C36.2646 17.5583 36.0546 17.1968 35.5998 17.0526C34.8392 16.8096 34.2397 16.3514 33.8237 15.6995C33.2854 14.8561 33.0387 13.8941 32.7042 12.9677C34.0888 11.2156 34.6598 9.19295 34.7679 7.02804C34.8392 5.62163 34.7658 4.22511 34.4783 2.83451C34.2601 1.77971 33.9767 0.750588 33.4404 -0.189647C32.6614 -1.55457 32.1312 -1.48543 30.8078 -1.30766C30.2471 -1.2326 29.7332 -0.969882 29.2438 -0.705194C26.7988 0.618245 24.7209 2.36439 22.9632 4.47202C22.8939 4.4661 22.8204 4.46807 22.7532 4.45029C21.9049 4.23894 21.0464 4.06314 20.1716 4.04338C19.5476 4.02956 19.048 3.82215 18.63 3.39154C18.5464 3.30463 18.4465 3.23154 18.3506 3.15648C17.8143 2.73575 17.2801 2.31501 16.5969 2.13131C15.9628 1.95946 15.4081 2.24983 15.2409 2.86414C15.143 3.22364 15.1716 3.59104 15.2633 3.95252C15.3327 4.1698 15.2633 4.28437 15.0166 4.29425C14.9228 4.2982 14.831 4.34165 14.7393 4.36536C14.5252 4.40486 14.311 4.44634 14.0969 4.48585C14.0786 4.4661 14.0602 4.44832 14.0419 4.42857C12.068 2.13724 9.90647 0.073066 6.98028 -1.07655C6.63158 -1.21284 6.28901 -1.34321 5.92196 -1.39457C5.13688 -1.50321 4.49251 -1.27408 4.03778 -0.616307C3.79512 -0.266682 3.58305 0.0987443 3.42399 0.487875C2.4452 2.87204 2.13117 5.34707 2.40441 7.89321C2.50841 8.87098 2.72252 9.82701 3.10588 10.7396C3.44234 11.5416 3.85221 12.308 4.41706 12.9855C4.2213 13.4991 4.0235 14.0126 3.82978 14.5262C3.48721 15.4289 2.98965 16.219 2.14136 16.7662C1.90278 16.9203 1.63157 16.9993 1.37464 17.1119C0.917869 17.3133 0.771049 17.5958 0.891359 18.0639C0.932142 18.222 0.983122 18.378 1.04634 18.5281C1.41746 19.4111 1.98231 20.1775 2.61037 20.8985C4.21722 22.7513 6.15034 24.2169 8.35467 25.3448C8.40361 25.3705 8.45255 25.3942 8.50353 25.4179C8.22824 25.8999 7.92441 26.3661 7.72457 26.8856L7.73885 26.8875C7.68787 26.8915 7.67767 26.9251 7.67563 26.9665C7.42278 27.407 7.23721 27.8752 7.04146 28.3394C6.65198 29.2658 6.39708 30.2277 6.14831 31.1936C5.76698 31.2055 5.43256 31.3457 5.12057 31.5452C4.07448 32.2188 3.61363 33.2183 3.4505 34.3798C3.41176 34.759 3.4138 35.1383 3.44846 35.5156C3.56265 36.6237 3.99496 37.5936 4.7678 38.4212C4.95948 38.4331 5.12465 38.3442 5.30002 38.2928C5.64463 38.194 6.00149 38.1387 6.35426 38.1664C7.01291 38.2178 7.63281 38.4331 8.24048 38.676C8.5382 38.838 8.83591 39 9.13159 39.16C8.81552 38.3481 8.50149 37.5343 8.33836 36.677C8.14872 35.6835 8.01209 34.6919 8.33836 33.7003C8.36487 33.6173 8.39749 33.5245 8.45459 33.4613C8.55043 33.3566 8.63811 33.2045 8.81552 33.244C8.99293 33.2835 8.91952 33.4494 8.93379 33.5581C9.07857 34.6504 9.27025 35.7368 9.49252 36.8173C9.65158 37.5916 9.90851 38.3442 10.1777 39.0908C11.8335 37.7792 13.7442 37.4711 15.8037 37.7496C16.0504 37.7832 16.2666 37.8918 16.4807 38.0024V38.678L17.4779 38.7116C17.4881 38.7985 17.4901 38.8874 17.4044 38.9565C17.5125 39.4247 17.5859 39.8948 17.6247 40.3748C17.6716 40.9338 17.3372 41.3703 16.9783 41.795C17.9265 41.9096 19.4558 41.9372 20.4061 41.8049C19.9717 41.1115 19.723 40.4182 19.7739 39.7051H20.9934L21.0321 37.8938C21.4664 37.7358 21.9232 37.6765 22.4004 37.6667C23.5892 37.6429 24.7474 37.7615 25.8302 38.277C26.2829 38.4923 26.7458 38.7017 27.0843 39.0869C27.4962 37.959 27.8266 36.8133 27.9877 35.6242C28.0815 34.9289 28.2099 34.2356 28.3241 33.5423C28.3466 33.4119 28.3466 33.2519 28.5342 33.24C28.7156 33.2282 28.7972 33.3704 28.8502 33.5067C29.097 34.1487 29.1357 34.8143 29.0725 35.4919C28.9971 36.284 28.7809 37.0504 28.5994 37.8207C28.5015 38.2336 28.3302 38.6306 28.1304 39.0098C28.1059 39.0572 28.0672 39.1086 28.1223 39.1619C28.3751 39.0217 28.628 38.8814 28.8808 38.7392" fill="#F97216"/>
<path d="M17.3886 37.11C17.3539 36.8038 17.1949 36.3692 17.0685 36.7939C16.9828 37.0468 17.0481 37.6097 16.9033 37.8033C16.8013 37.9198 16.5954 37.8132 16.4547 37.7539C15.6207 37.3549 14.597 37.3154 13.6386 37.4556C12.9249 37.5623 12.1949 37.7559 11.575 38.1134C11.3772 38.226 11.1896 38.3564 11.004 38.4867C10.7919 38.623 10.5065 38.8877 10.2577 38.8344C9.96404 38.7317 9.92734 38.3129 9.82538 38.0561C9.38696 36.6339 9.17896 35.1446 8.95466 33.6769C8.89756 33.3234 8.66102 33.1495 8.42244 33.5209C8.2695 33.7698 8.21648 34.0838 8.17774 34.3722C8.05743 35.5139 8.29397 36.6695 8.62024 37.7638C8.67733 37.9455 8.74055 38.1292 8.80172 38.309C8.83639 38.4196 8.8996 38.5974 8.86493 38.6823C8.77929 38.8344 8.47546 38.6369 8.34699 38.5934C7.8372 38.3583 7.3111 38.1588 6.74421 38.0779C5.14755 37.8092 3.31435 38.6546 3.43874 40.3949C3.58556 41.6393 4.89266 42.0403 6.01827 42.0818C7.14592 42.143 8.27562 42.0877 9.40327 42.0916C11.1325 42.0304 12.8189 42.5776 14.5379 42.5677C16.0815 42.5657 17.7128 41.8704 17.8372 40.2013C17.8862 39.7075 17.723 39.2314 17.6272 38.7534C17.5293 38.2161 17.4763 37.667 17.3906 37.1297V37.1159L17.3886 37.11Z" fill="#954A05"/>
<path d="M29.0772 38.6306C28.2779 39.0039 28.0842 39.1541 28.4675 38.2237C28.6266 37.7516 28.7285 37.2657 28.8427 36.7817C29.0609 35.8079 29.2179 34.7689 28.959 33.7971C28.8448 33.323 28.4573 33.0406 28.2962 33.6825C28.074 34.7828 27.9842 35.9047 27.7171 36.999C27.6009 37.483 27.4622 37.9649 27.3072 38.437C27.2175 38.7195 27.0544 38.9822 26.724 38.7748C26.3427 38.5259 25.9594 38.2178 25.5291 38.0361C24.4932 37.5877 23.3207 37.4158 22.1991 37.5442C21.9259 37.5778 21.6547 37.6311 21.3937 37.72C20.8615 37.8682 20.4149 38.4686 20.3904 37.5126C20.3802 37.3803 20.3354 36.7343 20.1518 36.8845C20.1029 36.9259 20.0621 37.08 20.0417 37.1847C19.9907 37.4929 19.95 37.8168 19.9051 38.1309C19.8643 38.4193 19.8337 38.7096 19.7909 38.998C19.7297 39.4365 19.6257 39.8652 19.6624 40.2997C19.7114 41.1866 20.2864 41.9728 21.149 42.2849C23.1779 43.0454 25.3231 42.1407 27.399 42.0913C28.6286 42.0419 29.8603 42.113 31.0899 42.0518C32.2114 42.0202 33.6612 41.6765 33.8611 40.4755C34.0711 39.243 32.713 37.7793 30.5169 38.1664C30.0316 38.2494 29.4953 38.4252 29.0895 38.6227L29.0793 38.6286L29.0772 38.6306Z" fill="#954A05"/>
<path d="M33.3264 19.7864L33.3223 19.7785C32.6535 18.7158 31.1628 18.5538 30.0148 18.8343C29.8394 18.8738 29.66 18.9252 29.4887 18.9746C29.35 19.0101 29.1094 19.0812 29.0197 18.9825C28.9932 18.9568 28.9809 18.9193 28.9748 18.8817C28.9483 18.6862 29.1053 18.2516 29.1318 17.9613C29.2664 17.0329 29.0992 16.0591 28.6343 15.2334C26.9622 12.3179 22.7411 12.6379 21.9948 16.0433C21.8194 16.7642 21.7868 17.4832 21.8786 18.2062C21.9051 18.4847 22.0254 18.9291 22.005 19.1089C21.9866 19.261 21.8826 19.2333 21.7134 19.1326C21.4911 18.9923 21.2607 18.8126 21.0242 18.6862C20.4104 18.3366 19.6946 18.2022 18.983 18.1706C17.7676 18.0877 16.6012 18.4274 15.6591 19.182C15.5123 19.2768 15.3104 19.4427 15.3064 19.2195C15.3125 19.0279 15.4287 18.5736 15.4511 18.2892C15.5714 17.2205 15.5123 16.0689 15.0188 15.0931C13.9605 12.8551 10.8651 12.6517 9.20724 14.4235C8.31205 15.4013 7.93685 16.7524 8.16523 18.0383C8.20602 18.3682 8.36711 18.702 8.25495 18.9469C8.09998 19.1267 7.76148 18.9627 7.54941 18.9193C6.37689 18.5756 4.97191 18.5973 4.09916 19.5158C3.5649 20.0709 4.0441 20.8215 4.43358 21.3331C4.68235 21.659 4.94948 21.9572 5.23293 22.2377C6.62567 23.5829 8.35487 24.5686 10.1473 25.3251C10.8365 25.6194 11.5462 25.8565 12.2701 26.054C12.5168 26.2377 12.421 26.6446 12.3292 26.931C12.2211 27.2826 12.1579 27.6461 12.1395 28.0135C12.0498 29.4278 12.6187 30.844 13.622 31.8672C14.6008 32.9299 15.9589 33.5877 16.952 34.6247C17.3435 35.0218 17.6494 35.5116 18.0715 35.8751C18.8667 36.5566 19.5091 35.8 19.9862 35.1758C20.4736 34.5378 21.067 33.9926 21.7256 33.5245C24.1094 31.9344 25.7999 29.8781 25.0066 26.9369C24.9475 26.7137 24.8761 26.4372 24.9597 26.2377C25.0005 26.1429 25.0698 26.0737 25.1555 26.0184C25.4002 25.9513 25.6428 25.8782 25.8835 25.8031C28.3672 24.9399 30.8264 23.6797 32.5535 21.7044C32.9634 21.175 33.6649 20.4817 33.3243 19.7785L33.3264 19.7864ZM27.1906 14.787V14.783C27.1906 14.783 27.1906 14.785 27.1906 14.787Z" fill="#FFF8EC"/>
<path d="M15.2688 15.5696L15.2614 15.5632C15.2614 15.5632 15.2651 15.5632 15.2688 15.5664V15.5696Z" fill="#FFF8EC"/>
<path d="M24.6742 16.2329C24.6803 15.8536 24.2725 15.5099 23.8789 15.6087C23.4548 15.6917 23.2142 16.1954 23.4344 16.5568C23.7647 17.1474 24.662 16.8966 24.6742 16.2467V16.2349V16.2329Z" fill="#162430"/>
<path d="M17.1886 18.8264C17.8778 18.4492 18.7628 18.4077 19.5194 18.6072C19.9863 18.7336 20.5349 19.018 20.5512 19.5435C20.5573 20.3217 19.8008 20.6615 19.3501 21.1632C18.9423 21.6017 19.2196 22.2002 19.8273 22.137C20.1862 22.0995 20.5308 21.8032 20.8367 21.7281C21.22 21.6254 21.1772 22.0382 21.0141 22.2516C20.7061 22.6842 20.1046 22.9192 19.5112 22.8876C19.2339 22.8758 18.9566 22.8303 18.6813 22.8284C17.9064 22.8343 17.1723 23.0279 16.5055 22.4452C16.2424 22.2595 15.9386 21.5879 16.53 21.7518C16.7033 21.8032 16.9174 21.9454 17.1274 22.0442C17.8371 22.4234 18.5487 21.7103 17.9431 21.1158C17.678 20.8452 17.2946 20.6832 17.0459 20.3968C16.6238 19.9484 16.583 19.1682 17.1804 18.8363L17.1906 18.8304L17.1886 18.8264Z" fill="#404041"/>
<path d="M30.7757 6.4631C30.7389 7.32037 30.6248 8.09864 30.3882 8.85715C30.2863 9.18307 30.1965 9.20875 29.9559 8.96183C29.2483 8.24086 28.4836 7.58111 27.6598 6.98853C27.5314 6.89569 27.4743 6.82655 27.6048 6.68828C28.088 6.17669 28.553 5.64929 29.1035 5.2009C29.2055 5.11793 29.3136 5.04485 29.4257 4.97769C29.8968 4.69917 30.3739 4.85127 30.5901 5.34509C30.7573 5.72435 30.7491 6.13125 30.7757 6.4631Z" fill="#FFF8EC"/>
<path d="M6.50747 6.83841C6.50136 6.38212 6.52787 5.98311 6.66041 5.59596C6.89287 4.92436 7.4516 4.72683 8.04092 5.13177C8.68733 5.57621 9.18285 6.17274 9.70487 6.73965C9.83742 6.88187 9.6804 6.93323 9.59884 6.99051C8.85454 7.50408 8.17754 8.08877 7.54948 8.72876C7.42713 8.8532 7.31294 8.98159 7.19059 9.10604C7.01522 9.28776 6.92142 9.27394 6.8419 9.0369C6.70935 8.63592 6.62575 8.22309 6.57681 7.80828C6.53602 7.46853 6.48708 7.12878 6.50544 6.83644L6.50747 6.83841Z" fill="#FFF8EC"/>
<path d="M26.6136 11.984C26.5952 12.1697 26.5381 12.3376 26.3444 12.4462C26.1568 12.5509 25.9978 12.4719 25.853 12.3751C25.4513 12.1025 25.021 11.8912 24.55 11.7549C24.1707 11.6443 24.0504 11.5119 24.0565 11.269C24.0626 11.0201 24.3114 10.7594 24.6111 10.6823C25.3554 10.4927 26.4158 11.1149 26.5973 11.8477C26.6075 11.8892 26.6075 11.9327 26.6136 11.986V11.984Z" fill="#954A05"/>
<path d="M12.3987 10.6566C12.7168 10.6448 12.9737 10.7613 13.1532 11.0082C13.355 11.2868 13.2653 11.6166 12.9309 11.7134C12.366 11.8754 11.8461 12.1105 11.3546 12.4245C11.0834 12.5983 10.747 12.383 10.7123 12.0532C10.6817 11.745 10.8285 11.5139 11.0324 11.2966C11.3995 10.9016 11.8501 10.6843 12.3966 10.6566H12.3987Z" fill="#954A05"/>
<path d="M12.4697 14.3129H12.4677C11.203 14.3129 10.1777 15.306 10.1777 16.5311V18.7059C10.1777 19.931 11.203 20.9241 12.4677 20.9241H12.4697C13.7345 20.9241 14.7597 19.931 14.7597 18.7059V16.5311C14.7597 15.306 13.7345 14.3129 12.4697 14.3129Z" fill="#404041"/>
<path d="M24.8864 14.4196H24.8843C23.6196 14.4196 22.5944 15.4127 22.5944 16.6378V18.8126C22.5944 20.0377 23.6196 21.0308 24.8843 21.0308H24.8864C26.1511 21.0308 27.1763 20.0377 27.1763 18.8126V16.6378C27.1763 15.4127 26.1511 14.4196 24.8864 14.4196Z" fill="#404041"/>
<path d="M25.0965 17.3055C25.0965 16.892 24.7504 16.5568 24.3236 16.5568C23.8968 16.5568 23.5508 16.892 23.5508 17.3055V17.3746C23.5508 17.788 23.8968 18.1232 24.3236 18.1232C24.7504 18.1232 25.0965 17.788 25.0965 17.3746V17.3055Z" fill="#FFF8EC"/>
<path d="M14.2155 17.3055C14.2155 16.892 13.8695 16.5568 13.4426 16.5568C13.0158 16.5568 12.6698 16.892 12.6698 17.3055V17.3746C12.6698 17.788 13.0158 18.1232 13.4426 18.1232C13.8695 18.1232 14.2155 17.788 14.2155 17.3746V17.3055Z" fill="#FFF8EC"/>
</svg>
