<svg width="43" height="42" viewBox="0 0 43 42" fill="none" xmlns="http://www.w3.org/2000/svg">
<path d="M14.8565 41.0613V14.1522C14.8565 14.1522 14.8723 14.1364 14.8802 14.1285C14.8802 14.1285 14.896 14.1128 14.9039 14.1128C14.9513 14.1128 14.9907 14.097 15.0381 14.097C17.9195 14.097 20.801 14.097 23.6824 14.097C23.7061 14.097 23.7297 14.1128 23.785 14.1207V17.7836C23.8718 17.7049 23.9192 17.6734 23.9508 17.6261C24.1166 17.4134 24.2902 17.2086 24.4481 16.9959C25.6244 15.4362 27.1085 14.3255 28.9953 13.7741C30.1084 13.4511 31.2451 13.3487 32.4056 13.3959C33.4713 13.4432 34.5134 13.5929 35.5317 13.9237C37.9237 14.6878 39.6842 16.2082 40.8446 18.4296C41.5078 19.7057 41.8946 21.0685 42.0998 22.4865C42.2577 23.5972 42.313 24.7158 42.313 25.8343C42.3209 29.1744 42.3288 32.5144 42.3367 35.8623C42.3367 37.4929 42.3367 39.1235 42.3367 40.7541C42.3367 40.8408 42.3367 40.9353 42.3367 41.0141C42.1314 41.0771 33.645 41.085 33.345 41.022V40.7147C33.345 38.6824 33.345 36.65 33.345 34.6098C33.345 31.7581 33.3371 28.9144 33.3214 26.0628C33.3214 25.0308 33.1398 24.0304 32.7687 23.0694C32.3188 21.9035 31.5293 21.0685 30.3057 20.6904C29.7531 20.525 29.1847 20.4462 28.6084 20.4541C26.3112 20.462 24.5429 22.2738 24.0534 24.0225C23.8639 24.6842 23.7929 25.3538 23.7929 26.0392C23.7929 30.9231 23.7929 35.8071 23.7929 40.6911C23.7929 40.8093 23.7929 40.9195 23.7929 41.0298C23.5798 41.0929 15.1802 41.1007 14.8486 41.0456L14.8565 41.0613Z" fill="white"/>
<path d="M9.71835 41.0616H0.853027V14.1288C1.05039 14.0658 8.99996 14.0422 9.67098 14.0973C9.67098 14.0973 9.68677 14.1052 9.69466 14.1131C9.69466 14.1131 9.71045 14.1288 9.71045 14.1367C9.71045 14.2076 9.72624 14.2785 9.72624 14.3494C9.72624 23.243 9.72624 32.1365 9.72624 41.0616H9.71835Z" fill="white"/>
<path d="M5.34455 0.917969C6.08661 0.941601 6.7971 1.06764 7.47601 1.33547C9.30749 2.06807 10.4364 3.76959 10.3732 5.76257C10.3101 7.67677 9.37064 9.03956 7.63389 9.81942C6.21292 10.4575 4.74457 10.4732 3.27623 9.95334C1.43685 9.29951 0.323759 7.7004 0.276394 5.74681C0.221133 3.40723 1.70526 1.54028 4.13672 1.06764C4.53143 0.988866 4.93403 0.973111 5.33664 0.925846L5.34455 0.917969Z" fill="white"/>
</svg>
